<svg xmlns="http://www.w3.org/2000/svg" xmlns:svg="http://www.w3.org/2000/svg" id="svg2" width="64" height="64" version="1.1" viewBox="0 0 64 64"><metadata id="metadata7"/><g id="layer1" transform="translate(0,-988.3622)"><path id="path4380" fill="#000" fill-opacity="1" fill-rule="nonzero" stroke="none" stroke-dasharray="none" stroke-dashoffset="0" stroke-linecap="round" stroke-linejoin="bevel" stroke-miterlimit="1" stroke-opacity=".992" stroke-width=".102" d="M 32.582031 2.9101562 A 27.949194 27.949194 0 0 0 4.6328125 30.859375 A 27.949194 27.949194 0 0 0 32.582031 58.808594 A 27.949194 27.949194 0 0 0 60.53125 30.859375 A 27.949194 27.949194 0 0 0 32.582031 2.9101562 z M 33.308594 4.0546875 A 25.950588 25.950588 0 0 1 59.259766 30.005859 A 25.950588 25.950588 0 0 1 33.308594 55.955078 A 25.950588 25.950588 0 0 1 7.359375 30.005859 A 25.950588 25.950588 0 0 1 33.308594 4.0546875 z" opacity="1" transform="translate(0,988.3622)"/><path id="path4412" fill="#000" fill-opacity="1" fill-rule="evenodd" stroke="none" stroke-dasharray="none" stroke-linecap="butt" stroke-linejoin="miter" stroke-miterlimit="4" stroke-opacity="1" stroke-width=".1" d="m 32.214844,18.128906 a 12.848894,12.848894 0 0 0 -12.84961,12.84961 12.848894,12.848894 0 0 0 12.84961,12.847656 12.848894,12.848894 0 0 0 12.849609,-12.847656 12.848894,12.848894 0 0 0 -12.849609,-12.84961 z m -3.257813,7.078125 9.214844,5.583985 -9.214844,5.865234 0,-11.449219 z M 54.806488,28.2928 a 20,20 0 0 1 -20,20 20,20 0 0 1 -20,-20 20,20 0 0 1 20,-19.99997 20,20 0 0 1 20,19.99997 z" transform="translate(0,988.3622)"/></g></svg>